# xmcd
#
# Track frame offsets: 
#        150
#        11890
#        24978
#        44560
#        57744
#        75940
#        89354
#        101073
#        112039
#        127663
#        140121
#        151799
#        164270
#        175580
#        189932
#        202488
#        214356
#        228498
#        241375
#        254631
#        266834
#        278511
#        290836
#        303252
#        317130
#        336912
#
# Disc length: 4667 seconds
#
# Revision: 4
# Processed by: cddbd v1.5.2PL0 Copyright (c) Steve Scherf et al.
# Submitted via: ExactAudioCopyFreeDBPlugin 1.0
#
DISCID=8512391a
DTITLE=Syl Johnson - The Complete Syl Johnson on Hi Records
DYEAR=2000
DGENRE=Rhythm and Blues
TTITLE0=Back for a Taste of Your Love
TTITLE1=I'm Yours
TTITLE2=I Let a Good Girl Go
TTITLE3=Anyway the Wind Blows
TTITLE4=You Don't Know Me
TTITLE5=Feelin' Frisky
TTITLE6=We Did It
TTITLE7=Wind Blow Her Back My Way
TTITLE8=I Hate I Walked Away
TTITLE9=The Love You Left Behind
TTITLE10=Anyone But You
TTITLE11=I Wanna Satisfy Your Every Need
TTITLE12=Age Ain't Nothin But a Number
TTITLE13=Let Yourself Go
TTITLE14=Don't Do It
TTITLE15=I Want to Take You Home (To See Mama)
TTITLE16=Could I Be Fallin' in Love
TTITLE17=Stuck in Chicago
TTITLE18=Diamond in the Rough
TTITLE19=Keepin' Down Confusion
TTITLE20=Please Don't Give Up on Me
TTITLE21=Music to My Ears
TTITLE22=I Hear the Love Chimes
TTITLE23=I Only Have Love
TTITLE24=Bustin' Up or Bustin' Out
TTITLE25=Star Bright Star Lite
EXTD=
EXTT0=
EXTT1=
EXTT2=
EXTT3=
EXTT4=
EXTT5=
EXTT6=
EXTT7=
EXTT8=
EXTT9=
EXTT10=
EXTT11=
EXTT12=
EXTT13=
EXTT14=
EXTT15=
EXTT16=
EXTT17=
EXTT18=
EXTT19=
EXTT20=
EXTT21=
EXTT22=
EXTT23=
EXTT24=
EXTT25=
PLAYORDER=
